# xmcd
#
# Track frame offsets: 
#        150
#        4125
#        7125
#        23710
#        41142
#        57385
#        68260
#        70627
#        86835
#        99210
#        111997
#        117492
#        122570
#        130862
#        134515
#        139587
#        144957
#        150500
#        151690
#        153105
#        157037
#        159942
#        162012
#        167985
#        184557
#        192927
#        203487
#        208395
#        211015
#        216752
#        219565
#        222600
#        227185
#        230070
#        232440
#        239022
#        244632
#        248657
#        252912
#        261965
#        264802
#        269597
#        273927
#        281852
#        285757
#        289597
#        294202
#
# Disc length: 3963 seconds
#
# Revision: 2
# Processed by: cddbd v1.5.2PL0 Copyright (c) Steve Scherf et al.
# Submitted via: ExactAudioCopy v0.99pb5
#
DISCID=b10f792f
DTITLE=The New London Orchestra - Corp - Satie Ballets   
DYEAR=1989
DGENRE=Orchestral
TTITLE0=Parade -I- Choral
TTITLE1=Parade -II- Prélude du rideau rouge
TTITLE2=Parade -III- Prestidigitateur chinois
TTITLE3=Parade -IV- Petite fille américaine
TTITLE4=Parade -V- Acrobates
TTITLE5=Parade -VI- Final
TTITLE6=Parade -VII- Suite au 'Prélude du rideau rouge'
TTITLE7=Trois Gymnopedies - No. 1
TTITLE8=Trois Gymnopedies - No. 2
TTITLE9=Trois Gymnopedies - No. 3
TTITLE10=Mercure -I- Ouverture
TTITLE11=Mercure -II- La nuit
TTITLE12=Mercure -III- Danse de tendresse
TTITLE13=Mercure -IV- Signes du Zodaique
TTITLE14=Mercure -V- Entrée et danse de Mercure
TTITLE15=Mercure -VI- Danse de Grâces
TTITLE16=Mercure -VII- Bain de Grâces
TTITLE17=Mercure -VIII- Fuite de Mercure
TTITLE18=Mercure -IX- Colère de Cerbère
TTITLE19=Mercure -X- Polka des lettres
TTITLE20=Mercure -XI- Nouvelle danse
TTITLE21=Mercure -XII- Le Chaos
TTITLE22=Mercure -XIII- Finale
TTITLE23=Trois gnossiennes - No. 1
TTITLE24=Trois gnossiennes - No. 2
TTITLE25=Trois gnossiennes - No. 3
TTITLE26=Relâche - Part 1 -I- Ouverturette
TTITLE27=Relâche - Part 1 -II- Projectionnette
TTITLE28=Relâche - Part 1 -III- Entrée de la femme
TTITLE29=Relâche - Part 1 -IV- Musique
TTITLE30=Relâche - Part 1 -V- Entrée de Borlin
TTITLE31=Relâche - Part 1 -VI- Danse de la porte tournante
TTITLE32=Relâche - Part 1 -VII- Entrée des hommes
TTITLE33=Relâche - Part 1 -VIII- Danse des hommes
TTITLE34=Relâche - Part 1 -IX- Danse de la femme
TTITLE35=Relâche - Part 1 -X- Final
TTITLE36=Relache - Part 2 -I- Musique de rentrée
TTITLE37=Relache - Part 2 -II- Rentrée des hommes
TTITLE38=Relache - Part 2 -III- Rentrée de la femme
TTITLE39=Relache - Part 2 -IV- Les hommes se dévêtissent
TTITLE40=Relache - Part 2 -V- Danse de Borlin et de la femme
TTITLE41=Relache - Part 2 -VI- Les hommes
TTITLE42=Relache - Part 2 -VII- Danse de la brouette
TTITLE43=Relache - Part 2 -VIII- Danse de la couronne
TTITLE44=Relache - Part 2 -IX- Le Danseur repose la couronne sur la tê
TTITLE44=te d'une spectatrice
TTITLE45=Relache - Part 2 -X- La Femme rejoint son fauteuil
TTITLE46=Relache - Part 2 -XI- La queue du chien (chanson mimée)
EXTD=YEAR: 1989
EXTT0=
EXTT1=
EXTT2=
EXTT3=
EXTT4=
EXTT5=
EXTT6=
EXTT7=
EXTT8=
EXTT9=
EXTT10=
EXTT11=
EXTT12=
EXTT13=
EXTT14=
EXTT15=
EXTT16=
EXTT17=
EXTT18=
EXTT19=
EXTT20=
EXTT21=
EXTT22=
EXTT23=
EXTT24=
EXTT25=
EXTT26=
EXTT27=
EXTT28=
EXTT29=
EXTT30=
EXTT31=
EXTT32=
EXTT33=
EXTT34=
EXTT35=
EXTT36=
EXTT37=
EXTT38=
EXTT39=
EXTT40=
EXTT41=
EXTT42=
EXTT43=
EXTT44=
EXTT45=
EXTT46=
PLAYORDER=
